<mxfile host="app.diagrams.net" modified="2021-06-11T06:35:07.673Z" agent="5.0 (Windows NT 10.0; Win64; x64) AppleWebKit/537.36 (KHTML, like Gecko) Chrome/91.0.4472.77 Safari/537.36" etag="XVsoy-FCkrr-CWRRK7T_" version="14.7.6" type="github">
  <diagram name="Page-1" id="0783ab3e-0a74-02c8-0abd-f7b4e66b4bec">
    <mxGraphModel dx="868" dy="393" grid="1" gridSize="10" guides="1" tooltips="1" connect="1" arrows="1" fold="1" page="1" pageScale="1" pageWidth="850" pageHeight="1100" background="none" math="0" shadow="0">
      <root>
        <mxCell id="0" />
        <mxCell id="1" parent="0" />
        <mxCell id="SP-hjuUy2KlmpOL5PiHy-1" value="Manager" style="swimlane;" vertex="1" parent="1">
          <mxGeometry x="140" y="80" width="220" height="770" as="geometry" />
        </mxCell>
        <mxCell id="SP-hjuUy2KlmpOL5PiHy-11" style="edgeStyle=orthogonalEdgeStyle;rounded=0;orthogonalLoop=1;jettySize=auto;html=1;exitX=0.5;exitY=1;exitDx=0;exitDy=0;entryX=0.5;entryY=0;entryDx=0;entryDy=0;" edge="1" parent="SP-hjuUy2KlmpOL5PiHy-1" source="SP-hjuUy2KlmpOL5PiHy-3" target="SP-hjuUy2KlmpOL5PiHy-4">
          <mxGeometry relative="1" as="geometry" />
        </mxCell>
        <mxCell id="SP-hjuUy2KlmpOL5PiHy-3" value="" style="ellipse;fillColor=#000000;strokeColor=none;" vertex="1" parent="SP-hjuUy2KlmpOL5PiHy-1">
          <mxGeometry x="92.5" y="40" width="20" height="20" as="geometry" />
        </mxCell>
        <mxCell id="SP-hjuUy2KlmpOL5PiHy-13" style="edgeStyle=orthogonalEdgeStyle;rounded=0;orthogonalLoop=1;jettySize=auto;html=1;exitX=0.5;exitY=1;exitDx=0;exitDy=0;entryX=0.5;entryY=0;entryDx=0;entryDy=0;" edge="1" parent="SP-hjuUy2KlmpOL5PiHy-1" source="SP-hjuUy2KlmpOL5PiHy-4" target="SP-hjuUy2KlmpOL5PiHy-5">
          <mxGeometry relative="1" as="geometry" />
        </mxCell>
        <mxCell id="SP-hjuUy2KlmpOL5PiHy-4" value="Register Customer" style="html=1;align=center;verticalAlign=top;rounded=1;absoluteArcSize=1;arcSize=10;dashed=0;" vertex="1" parent="SP-hjuUy2KlmpOL5PiHy-1">
          <mxGeometry x="50" y="100" width="105" height="30" as="geometry" />
        </mxCell>
        <mxCell id="SP-hjuUy2KlmpOL5PiHy-14" style="edgeStyle=orthogonalEdgeStyle;rounded=0;orthogonalLoop=1;jettySize=auto;html=1;exitX=0.5;exitY=1;exitDx=0;exitDy=0;entryX=0.5;entryY=0;entryDx=0;entryDy=0;" edge="1" parent="SP-hjuUy2KlmpOL5PiHy-1" source="SP-hjuUy2KlmpOL5PiHy-5" target="SP-hjuUy2KlmpOL5PiHy-8">
          <mxGeometry relative="1" as="geometry" />
        </mxCell>
        <mxCell id="SP-hjuUy2KlmpOL5PiHy-5" value="Set Profile&amp;nbsp;" style="html=1;align=center;verticalAlign=top;rounded=1;absoluteArcSize=1;arcSize=10;dashed=0;" vertex="1" parent="SP-hjuUy2KlmpOL5PiHy-1">
          <mxGeometry x="72.5" y="160" width="65" height="30" as="geometry" />
        </mxCell>
        <mxCell id="SP-hjuUy2KlmpOL5PiHy-29" style="edgeStyle=orthogonalEdgeStyle;rounded=0;orthogonalLoop=1;jettySize=auto;html=1;exitX=0.5;exitY=1;exitDx=0;exitDy=0;entryX=0.5;entryY=0;entryDx=0;entryDy=0;" edge="1" parent="SP-hjuUy2KlmpOL5PiHy-1" source="SP-hjuUy2KlmpOL5PiHy-9" target="SP-hjuUy2KlmpOL5PiHy-26">
          <mxGeometry relative="1" as="geometry" />
        </mxCell>
        <mxCell id="SP-hjuUy2KlmpOL5PiHy-9" value="Provide Services" style="html=1;align=center;verticalAlign=top;rounded=1;absoluteArcSize=1;arcSize=10;dashed=0;" vertex="1" parent="SP-hjuUy2KlmpOL5PiHy-1">
          <mxGeometry x="60" y="480" width="100" height="30" as="geometry" />
        </mxCell>
        <mxCell id="SP-hjuUy2KlmpOL5PiHy-8" value="Booking on feasible&lt;br&gt;&amp;nbsp;dates" style="html=1;align=center;verticalAlign=top;rounded=1;absoluteArcSize=1;arcSize=10;dashed=0;" vertex="1" parent="SP-hjuUy2KlmpOL5PiHy-1">
          <mxGeometry x="45" y="220" width="115" height="40" as="geometry" />
        </mxCell>
        <mxCell id="SP-hjuUy2KlmpOL5PiHy-26" value="Maintain record" style="html=1;align=center;verticalAlign=top;rounded=1;absoluteArcSize=1;arcSize=10;dashed=0;" vertex="1" parent="SP-hjuUy2KlmpOL5PiHy-1">
          <mxGeometry x="60" y="530" width="100" height="30" as="geometry" />
        </mxCell>
        <mxCell id="SP-hjuUy2KlmpOL5PiHy-36" style="edgeStyle=orthogonalEdgeStyle;rounded=0;orthogonalLoop=1;jettySize=auto;html=1;exitX=0.5;exitY=1;exitDx=0;exitDy=0;entryX=0.5;entryY=0;entryDx=0;entryDy=0;" edge="1" parent="SP-hjuUy2KlmpOL5PiHy-1" source="SP-hjuUy2KlmpOL5PiHy-32" target="SP-hjuUy2KlmpOL5PiHy-35">
          <mxGeometry relative="1" as="geometry" />
        </mxCell>
        <mxCell id="SP-hjuUy2KlmpOL5PiHy-32" value="Recieve Payment" style="html=1;align=center;verticalAlign=top;rounded=1;absoluteArcSize=1;arcSize=10;dashed=0;" vertex="1" parent="SP-hjuUy2KlmpOL5PiHy-1">
          <mxGeometry x="60" y="680" width="100" height="30" as="geometry" />
        </mxCell>
        <mxCell id="SP-hjuUy2KlmpOL5PiHy-35" value="" style="ellipse;html=1;shape=endState;fillColor=#000000;strokeColor=#000000;" vertex="1" parent="SP-hjuUy2KlmpOL5PiHy-1">
          <mxGeometry x="97.5" y="740" width="25" height="20" as="geometry" />
        </mxCell>
        <mxCell id="SP-hjuUy2KlmpOL5PiHy-2" value="Customer" style="swimlane;" vertex="1" parent="1">
          <mxGeometry x="360" y="80" width="220" height="770" as="geometry" />
        </mxCell>
        <mxCell id="SP-hjuUy2KlmpOL5PiHy-7" value="get &lt;br&gt;Booking" style="html=1;align=center;verticalAlign=top;rounded=1;absoluteArcSize=1;arcSize=10;dashed=0;" vertex="1" parent="SP-hjuUy2KlmpOL5PiHy-2">
          <mxGeometry x="120" y="350" width="70" height="40" as="geometry" />
        </mxCell>
        <mxCell id="SP-hjuUy2KlmpOL5PiHy-6" value="check &lt;br&gt;Services" style="html=1;align=center;verticalAlign=top;rounded=1;absoluteArcSize=1;arcSize=10;dashed=0;" vertex="1" parent="SP-hjuUy2KlmpOL5PiHy-2">
          <mxGeometry x="10" y="350" width="70" height="40" as="geometry" />
        </mxCell>
        <mxCell id="SP-hjuUy2KlmpOL5PiHy-28" value="Give Feedback" style="html=1;align=center;verticalAlign=top;rounded=1;absoluteArcSize=1;arcSize=10;dashed=0;" vertex="1" parent="SP-hjuUy2KlmpOL5PiHy-2">
          <mxGeometry x="65" y="600" width="100" height="30" as="geometry" />
        </mxCell>
        <mxCell id="SP-hjuUy2KlmpOL5PiHy-15" style="edgeStyle=orthogonalEdgeStyle;rounded=0;orthogonalLoop=1;jettySize=auto;html=1;exitX=1;exitY=0.5;exitDx=0;exitDy=0;entryX=0;entryY=0.5;entryDx=0;entryDy=0;" edge="1" parent="1" source="SP-hjuUy2KlmpOL5PiHy-8" target="SP-hjuUy2KlmpOL5PiHy-21">
          <mxGeometry relative="1" as="geometry">
            <mxPoint x="460" y="360" as="targetPoint" />
            <Array as="points">
              <mxPoint x="340" y="320" />
              <mxPoint x="340" y="310" />
            </Array>
          </mxGeometry>
        </mxCell>
        <mxCell id="SP-hjuUy2KlmpOL5PiHy-16" value="" style="html=1;points=[];perimeter=orthogonalPerimeter;fillColor=#000000;strokeColor=none;direction=south;" vertex="1" parent="1">
          <mxGeometry x="410" y="360" width="110" height="5" as="geometry" />
        </mxCell>
        <mxCell id="SP-hjuUy2KlmpOL5PiHy-17" style="edgeStyle=orthogonalEdgeStyle;rounded=0;orthogonalLoop=1;jettySize=auto;html=1;exitX=1;exitY=0.736;exitDx=0;exitDy=0;exitPerimeter=0;entryX=0.5;entryY=0;entryDx=0;entryDy=0;" edge="1" parent="1" source="SP-hjuUy2KlmpOL5PiHy-16" target="SP-hjuUy2KlmpOL5PiHy-6">
          <mxGeometry relative="1" as="geometry">
            <mxPoint x="470" y="370" as="targetPoint" />
            <mxPoint x="310" y="330" as="sourcePoint" />
            <Array as="points">
              <mxPoint x="439" y="400" />
              <mxPoint x="405" y="400" />
            </Array>
          </mxGeometry>
        </mxCell>
        <mxCell id="SP-hjuUy2KlmpOL5PiHy-18" style="edgeStyle=orthogonalEdgeStyle;rounded=0;orthogonalLoop=1;jettySize=auto;html=1;exitX=1;exitY=0.291;exitDx=0;exitDy=0;exitPerimeter=0;entryX=0.571;entryY=0;entryDx=0;entryDy=0;entryPerimeter=0;" edge="1" parent="1" source="SP-hjuUy2KlmpOL5PiHy-16" target="SP-hjuUy2KlmpOL5PiHy-7">
          <mxGeometry relative="1" as="geometry">
            <mxPoint x="415" y="440" as="targetPoint" />
            <mxPoint x="449.03999999999996" y="375" as="sourcePoint" />
            <Array as="points">
              <mxPoint x="488" y="400" />
              <mxPoint x="520" y="400" />
            </Array>
          </mxGeometry>
        </mxCell>
        <mxCell id="SP-hjuUy2KlmpOL5PiHy-20" value="" style="html=1;points=[];perimeter=orthogonalPerimeter;fillColor=#000000;strokeColor=none;direction=south;" vertex="1" parent="1">
          <mxGeometry x="400" y="500" width="120" height="5" as="geometry" />
        </mxCell>
        <mxCell id="SP-hjuUy2KlmpOL5PiHy-22" style="edgeStyle=orthogonalEdgeStyle;rounded=0;orthogonalLoop=1;jettySize=auto;html=1;exitX=0.5;exitY=1;exitDx=0;exitDy=0;entryX=0;entryY=0.545;entryDx=0;entryDy=0;entryPerimeter=0;" edge="1" parent="1" source="SP-hjuUy2KlmpOL5PiHy-21" target="SP-hjuUy2KlmpOL5PiHy-16">
          <mxGeometry relative="1" as="geometry" />
        </mxCell>
        <mxCell id="SP-hjuUy2KlmpOL5PiHy-21" value="Register&lt;br&gt;&amp;nbsp;yourself" style="html=1;align=center;verticalAlign=top;rounded=1;absoluteArcSize=1;arcSize=10;dashed=0;" vertex="1" parent="1">
          <mxGeometry x="420" y="290" width="70" height="40" as="geometry" />
        </mxCell>
        <mxCell id="SP-hjuUy2KlmpOL5PiHy-23" style="edgeStyle=orthogonalEdgeStyle;rounded=0;orthogonalLoop=1;jettySize=auto;html=1;exitX=0.5;exitY=1;exitDx=0;exitDy=0;entryX=0.6;entryY=0.783;entryDx=0;entryDy=0;entryPerimeter=0;" edge="1" parent="1" source="SP-hjuUy2KlmpOL5PiHy-6" target="SP-hjuUy2KlmpOL5PiHy-20">
          <mxGeometry relative="1" as="geometry" />
        </mxCell>
        <mxCell id="SP-hjuUy2KlmpOL5PiHy-24" style="edgeStyle=orthogonalEdgeStyle;rounded=0;orthogonalLoop=1;jettySize=auto;html=1;exitX=0.5;exitY=1;exitDx=0;exitDy=0;entryX=0.4;entryY=0.208;entryDx=0;entryDy=0;entryPerimeter=0;" edge="1" parent="1" source="SP-hjuUy2KlmpOL5PiHy-7" target="SP-hjuUy2KlmpOL5PiHy-20">
          <mxGeometry relative="1" as="geometry" />
        </mxCell>
        <mxCell id="SP-hjuUy2KlmpOL5PiHy-25" style="edgeStyle=orthogonalEdgeStyle;rounded=0;orthogonalLoop=1;jettySize=auto;html=1;exitX=0.8;exitY=0.492;exitDx=0;exitDy=0;entryX=0.5;entryY=0;entryDx=0;entryDy=0;exitPerimeter=0;" edge="1" parent="1" source="SP-hjuUy2KlmpOL5PiHy-20" target="SP-hjuUy2KlmpOL5PiHy-9">
          <mxGeometry relative="1" as="geometry">
            <mxPoint x="525" y="480" as="sourcePoint" />
            <mxPoint x="505.03999999999996" y="512" as="targetPoint" />
          </mxGeometry>
        </mxCell>
        <mxCell id="SP-hjuUy2KlmpOL5PiHy-27" style="edgeStyle=orthogonalEdgeStyle;rounded=0;orthogonalLoop=1;jettySize=auto;html=1;exitX=0.5;exitY=1;exitDx=0;exitDy=0;" edge="1" parent="1" source="SP-hjuUy2KlmpOL5PiHy-26">
          <mxGeometry relative="1" as="geometry">
            <mxPoint x="470" y="680" as="targetPoint" />
          </mxGeometry>
        </mxCell>
        <mxCell id="SP-hjuUy2KlmpOL5PiHy-34" style="edgeStyle=orthogonalEdgeStyle;rounded=0;orthogonalLoop=1;jettySize=auto;html=1;exitX=0.5;exitY=1;exitDx=0;exitDy=0;entryX=1;entryY=0.5;entryDx=0;entryDy=0;" edge="1" parent="1" source="SP-hjuUy2KlmpOL5PiHy-31" target="SP-hjuUy2KlmpOL5PiHy-32">
          <mxGeometry relative="1" as="geometry">
            <Array as="points">
              <mxPoint x="475" y="775" />
            </Array>
          </mxGeometry>
        </mxCell>
        <mxCell id="SP-hjuUy2KlmpOL5PiHy-31" value="Payment" style="html=1;align=center;verticalAlign=top;rounded=1;absoluteArcSize=1;arcSize=10;dashed=0;" vertex="1" parent="1">
          <mxGeometry x="425" y="730" width="100" height="30" as="geometry" />
        </mxCell>
        <mxCell id="SP-hjuUy2KlmpOL5PiHy-33" style="edgeStyle=orthogonalEdgeStyle;rounded=0;orthogonalLoop=1;jettySize=auto;html=1;exitX=0.5;exitY=1;exitDx=0;exitDy=0;entryX=0.5;entryY=0;entryDx=0;entryDy=0;" edge="1" parent="1" source="SP-hjuUy2KlmpOL5PiHy-28" target="SP-hjuUy2KlmpOL5PiHy-31">
          <mxGeometry relative="1" as="geometry" />
        </mxCell>
      </root>
    </mxGraphModel>
  </diagram>
</mxfile>
